<?xml version="1.0" encoding="UTF-8" standalone="no"?>
<svg
   xmlns:dc="http://purl.org/dc/elements/1.1/"
   xmlns:cc="http://creativecommons.org/ns#"
   xmlns:rdf="http://www.w3.org/1999/02/22-rdf-syntax-ns#"
   xmlns:svg="http://www.w3.org/2000/svg"
   xmlns="http://www.w3.org/2000/svg"
   xmlns:sodipodi="http://sodipodi.sourceforge.net/DTD/sodipodi-0.dtd"
   xmlns:inkscape="http://www.inkscape.org/namespaces/inkscape"
   width="160"
   height="128"
   viewBox="0 0 42.333332 33.866668"
   version="1.1"
   id="svg18"
   inkscape:version="1.0.2-2 (e86c870879, 2021-01-15)"
   sodipodi:docname="jackpot.svg">
  <defs
     id="defs12" />
  <sodipodi:namedview
     id="base"
     pagecolor="#ffffff"
     bordercolor="#666666"
     borderopacity="1.0"
     inkscape:pageopacity="0.0"
     inkscape:pageshadow="2"
     inkscape:zoom="5.6"
     inkscape:cx="104.02926"
     inkscape:cy="71.318401"
     inkscape:document-units="px"
     inkscape:current-layer="layer1"
     inkscape:document-rotation="0"
     showgrid="true"
     units="px"
     gridtolerance="10"
     inkscape:window-width="2497"
     inkscape:window-height="1417"
     inkscape:window-x="1975"
     inkscape:window-y="1072"
     inkscape:window-maximized="1">
    <sodipodi:guide
       position="0,33.866667"
       orientation="0,160"
       id="guide20" />
    <sodipodi:guide
       position="42.333333,33.866667"
       orientation="128,0"
       id="guide22" />
    <sodipodi:guide
       position="42.333333,0"
       orientation="0,-160"
       id="guide24" />
    <sodipodi:guide
       position="0,0"
       orientation="-128,0"
       id="guide26" />
    <inkscape:grid
       type="xygrid"
       id="grid28"
       dotted="true"
       empspacing="16" />
  </sodipodi:namedview>
  <metadata
     id="metadata15">
    <rdf:RDF>
      <cc:Work
         rdf:about="">
        <dc:format>image/svg+xml</dc:format>
        <dc:type
           rdf:resource="http://purl.org/dc/dcmitype/StillImage" />
        <dc:title></dc:title>
      </cc:Work>
    </rdf:RDF>
  </metadata>
  <g
     inkscape:label="Layer 1"
     inkscape:groupmode="layer"
     id="layer1">
    <rect
       style="fill:#000000;stroke-width:0.264583;"
       id="rect30"
       width="42.333332"
       height="33.866665"
       x="0"
       y="0" />
    <text
       xml:space="preserve"
       style="font-style:normal;font-variant:normal;font-weight:normal;font-stretch:normal;font-size:9.37782px;line-height:1.25;font-family:'Card Characters';-inkscape-font-specification:'Card Characters';fill:#ffffff;fill-opacity:1;stroke:none;stroke-width:0.319698"
       x="0.055735536"
       y="20.593895"
       id="text34"><tspan
         sodipodi:role="line"
         id="tspan32"
         x="0.055735536"
         y="20.593895"
         style="font-style:normal;font-variant:normal;font-weight:normal;font-stretch:normal;font-size:9.37782px;font-family:'Card Characters';-inkscape-font-specification:'Card Characters';fill:#ffffff;stroke-width:0.319698">JACKPOT</tspan></text>
    <path
       sodipodi:type="star"
       style="fill:#ffcc00;stroke-width:0.102658"
       id="path951"
       sodipodi:sides="8"
       sodipodi:cx="12.095239"
       sodipodi:cy="6.8508187"
       sodipodi:r1="3.1241539"
       sodipodi:r2="1.562077"
       sodipodi:arg1="-0.73618739"
       sodipodi:arg2="-0.34348831"
       inkscape:flatsided="false"
       inkscape:rounded="0.02"
       inkscape:randomized="0"
       d="m 14.410343,4.7530508 c 0.02396,0.026442 -0.856292,1.5381036 -0.844275,1.5717014 0.01202,0.033598 1.651298,0.6441074 1.649542,0.6797464 -0.0018,0.035639 -1.693093,0.4821138 -1.708353,0.5143683 -0.01526,0.032254 0.712191,1.6230965 0.68575,1.6470559 -0.02644,0.023959 -1.538104,-0.8562917 -1.571702,-0.8442749 -0.0336,0.012017 -0.644107,1.6512977 -0.679746,1.6495425 C 11.90592,9.9694351 11.459445,8.2780972 11.42719,8.2628371 11.394936,8.2475771 9.8040939,8.9750282 9.7801345,8.9485865 9.7561751,8.9221448 10.636426,7.4104829 10.624409,7.3768851 10.612393,7.3432872 8.9731117,6.7327776 8.974867,6.6971387 8.9766222,6.6614997 10.66796,6.2150248 10.68322,6.1827704 10.69848,6.150516 9.9710291,4.5596739 9.9974708,4.5357145 c 0.026442,-0.02396 1.5381032,0.8562917 1.5717012,0.8442748 0.0336,-0.012017 0.644108,-1.6512976 0.679747,-1.6495424 0.03564,0.00176 0.482113,1.6930931 0.514368,1.7083532 0.03225,0.01526 1.623096,-0.712191 1.647056,-0.6857493 z" />
    <path
       sodipodi:type="star"
       style="fill:#ffcc00;stroke-width:0.102658"
       id="path953"
       sodipodi:sides="8"
       sodipodi:cx="35.010044"
       sodipodi:cy="3.7325151"
       sodipodi:r1="4.0071383"
       sodipodi:r2="2.0035691"
       sodipodi:arg1="-0.69020932"
       sodipodi:arg2="-0.29751024"
       inkscape:flatsided="false"
       inkscape:rounded="0.02"
       inkscape:randomized="0"
       d="m 38.1,1.1811758 c 0.02914,0.035292 -1.187821,1.9202551 -1.174405,1.9640116 0.01342,0.043756 2.077797,0.9226269 2.073447,0.9681868 -0.0044,0.04556 -2.197742,0.5179093 -2.219195,0.5583365 -0.02145,0.040427 0.816828,2.12162 0.781536,2.1507598 -0.03529,0.02914 -1.920255,-1.1878207 -1.964011,-1.1744045 -0.04376,0.013416 -0.922627,2.0777968 -0.968187,2.0734469 -0.04556,-0.00435 -0.517909,-2.1977415 -0.558337,-2.2191953 -0.04043,-0.021454 -2.121619,0.8168284 -2.150759,0.7815368 -0.02914,-0.035292 1.18782,-1.9202551 1.174404,-1.9640116 -0.01342,-0.043756 -2.077797,-0.9226269 -2.073447,-0.9681868 0.0044,-0.04556 2.197742,-0.5179093 2.219196,-0.5583365 0.02145,-0.040427 -0.816829,-2.12161999 -0.781537,-2.15075983 0.03529,-0.0291399 1.920255,1.18782073 1.964011,1.17440453 0.04376,-0.013416 0.922627,-2.07779683 0.968187,-2.07344689 0.04556,0.00435 0.51791,2.19774149 0.558337,2.21919529 0.04043,0.021454 2.12162,-0.8168284 2.15076,-0.7815368 z" />
    <path
       sodipodi:type="star"
       style="fill:#ffcc00;stroke-width:0.102658"
       id="path955"
       sodipodi:sides="8"
       sodipodi:cx="29.765626"
       sodipodi:cy="29.52939"
       sodipodi:r1="3.557359"
       sodipodi:r2="1.7786794"
       sodipodi:arg1="-1.0417659"
       sodipodi:arg2="-0.64906677"
       inkscape:flatsided="false"
       inkscape:rounded="0.02"
       inkscape:randomized="0"
       d="m 31.561014,26.458334 c 0.03507,0.0205 -0.402964,1.963578 -0.378405,1.995946 0.02456,0.03237 2.013811,0.133773 2.024113,0.173076 0.0103,0.0393 -1.673398,1.103521 -1.67892,1.143774 -0.0055,0.04025 1.329387,1.518571 1.308882,1.553647 -0.02051,0.03508 -1.963579,-0.402963 -1.995946,-0.378405 -0.03237,0.02456 -0.133774,2.013811 -0.173076,2.024114 -0.0393,0.0103 -1.103521,-1.673398 -1.143774,-1.67892 -0.04025,-0.0055 -1.518572,1.329387 -1.553648,1.308881 -0.03508,-0.02051 0.402964,-1.963578 0.378405,-1.995946 -0.02456,-0.03237 -2.013811,-0.133774 -2.024113,-0.173076 -0.0103,-0.0393 1.673397,-1.103521 1.678919,-1.143774 0.0055,-0.04025 -1.329387,-1.518572 -1.308881,-1.553647 0.02051,-0.03508 1.963578,0.402963 1.995946,0.378405 0.03237,-0.02456 0.133774,-2.013811 0.173076,-2.024114 0.0393,-0.0103 1.103521,1.673398 1.143774,1.67892 0.04025,0.0055 1.518572,-1.329387 1.553648,-1.308881 z" />
    <path
       sodipodi:type="star"
       style="fill:#ffcc00;stroke-width:0.102658"
       id="path957"
       sodipodi:sides="8"
       sodipodi:cx="6.66183"
       sodipodi:cy="26.34494"
       sodipodi:r1="4.4199986"
       sodipodi:r2="2.2099993"
       sodipodi:arg1="-0.88837607"
       sodipodi:arg2="-0.49567699"
       inkscape:flatsided="false"
       inkscape:rounded="0.02"
       inkscape:randomized="0"
       d="m 9.4494042,22.914806 c 0.039177,0.03184 -0.867566,2.334591 -0.8435552,2.378998 0.024011,0.04441 2.447375,0.546563 2.452564,0.596778 0.0052,0.05022 -2.2642665,1.037343 -2.2786886,1.085722 -0.014422,0.04838 1.3440776,2.117034 1.3122396,2.15621 -0.03184,0.03918 -2.3345913,-0.867566 -2.3789981,-0.843555 -0.044407,0.02401 -0.5465627,2.447375 -0.5967778,2.452565 -0.050215,0.0052 -1.0373433,-2.264267 -1.0857219,-2.278689 -0.048379,-0.01442 -2.1170336,1.344077 -2.1562105,1.312239 -0.039177,-0.03184 0.867566,-2.334591 0.8435552,-2.378998 -0.024011,-0.04441 -2.4473751,-0.546563 -2.4525645,-0.596778 -0.00519,-0.05022 2.264267,-1.037343 2.2786891,-1.085722 0.014422,-0.04838 -1.3440773,-2.117033 -1.3122393,-2.15621 0.031838,-0.03918 2.334591,0.867566 2.3789978,0.843555 0.044407,-0.02401 0.5465627,-2.447375 0.5967778,-2.452564 0.050215,-0.0052 1.0373433,2.264267 1.0857219,2.278689 0.048379,0.01442 2.1170336,-1.344078 2.1562105,-1.31224 z" />
  </g>
</svg>
