<?xml version="1.0" encoding="UTF-8" standalone="no"?>
<svg
   xmlns:dc="http://purl.org/dc/elements/1.1/"
   xmlns:cc="http://creativecommons.org/ns#"
   xmlns:rdf="http://www.w3.org/1999/02/22-rdf-syntax-ns#"
   xmlns:svg="http://www.w3.org/2000/svg"
   xmlns="http://www.w3.org/2000/svg"
   xmlns:sodipodi="http://sodipodi.sourceforge.net/DTD/sodipodi-0.dtd"
   xmlns:inkscape="http://www.inkscape.org/namespaces/inkscape"
   width="128"
   height="160"
   viewBox="0 0 33.866666 42.333335"
   version="1.1"
   id="svg8"
   inkscape:version="1.0.2-2 (e86c870879, 2021-01-15)"
   sodipodi:docname="skill_plunge_v.svg"
   inkscape:export-filename="A:\source\zpin\cdisp\media\160\bet.png"
   inkscape:export-xdpi="96"
   inkscape:export-ydpi="96">
  <defs
     id="defs2" />
  <sodipodi:namedview
     id="base"
     pagecolor="#ffffff"
     bordercolor="#666666"
     borderopacity="1.0"
     inkscape:pageopacity="0.0"
     inkscape:pageshadow="2"
     inkscape:zoom="5.6"
     inkscape:cx="63.314755"
     inkscape:cy="88.034129"
     inkscape:document-units="px"
     inkscape:current-layer="layer1"
     inkscape:document-rotation="0"
     showgrid="false"
     units="px"
     inkscape:snap-page="true"
     inkscape:window-width="2497"
     inkscape:window-height="1417"
     inkscape:window-x="1975"
     inkscape:window-y="1072"
     inkscape:window-maximized="1" />
  <metadata
     id="metadata5">
    <rdf:RDF>
      <cc:Work
         rdf:about="">
        <dc:format>image/svg+xml</dc:format>
        <dc:type
           rdf:resource="http://purl.org/dc/dcmitype/StillImage" />
        <dc:title></dc:title>
      </cc:Work>
    </rdf:RDF>
  </metadata>
  <g
     inkscape:label="Layer 1"
     inkscape:groupmode="layer"
     id="layer1">
    <rect
       style="fill:#000000;stroke-width:0.262169"
       id="rect10"
       width="33.81942"
       height="42.333332"
       x="0.047247026"
       y="7.4246165e-16" />
    <text
       xml:space="preserve"
       style="font-size:8.89139px;line-height:1.25;font-family:'Card Characters';-inkscape-font-specification:'Card Characters';text-align:center;text-anchor:middle;fill:#ffffff;stroke-width:0.222285"
       x="17.032045"
       y="18.227787"
       id="text14"><tspan
         sodipodi:role="line"
         id="tspan12"
         x="17.032045"
         y="18.227787"
         style="text-align:center;text-anchor:middle;fill:#ffffff;stroke-width:0.222285">PLUNGE</tspan><tspan
         sodipodi:role="line"
         x="17.032045"
         y="29.342024"
         style="text-align:center;text-anchor:middle;fill:#ffffff;stroke-width:0.222285"
         id="tspan24">HERE</tspan></text>
    <path
       sodipodi:type="star"
       style="fill:#ffff00;stroke-width:0.102658"
       id="path26"
       sodipodi:sides="5"
       sodipodi:cx="7.276042"
       sodipodi:cy="5.0554318"
       sodipodi:r1="3.2801824"
       sodipodi:r2="1.6400912"
       sodipodi:arg1="-0.84654633"
       sodipodi:arg2="-0.2182278"
       inkscape:flatsided="false"
       inkscape:rounded="0.02"
       inkscape:randomized="0"
       d="m 9.4494051,2.5985865 c 0.03263,0.028865 -0.5816024,2.0592341 -0.5721705,2.1017659 0.00943,0.042532 1.4243814,1.6229108 1.4070124,1.6628637 C 10.266878,6.403169 8.1460739,6.4464176 8.1085383,6.4685309 8.0710027,6.4906442 7.0052165,8.3247051 6.9618517,8.3205323 6.9184869,8.3163594 6.2219905,6.3127196 6.1893604,6.2838545 6.1567303,6.2549894 4.0830887,5.8081225 4.0736568,5.7655907 4.064225,5.7230588 5.7545704,4.4414926 5.7719395,4.4015397 5.7893086,4.3615868 5.5735138,2.251347 5.6110494,2.2292337 5.648585,2.2071204 7.3897723,3.4187088 7.4331371,3.4228816 7.4765019,3.4270545 9.416775,2.5697214 9.4494051,2.5985865 Z"
       inkscape:transform-center-x="0.097030388"
       inkscape:transform-center-y="0.21930525" />
    <path
       sodipodi:type="star"
       style="fill:#ffff00;stroke-width:0.102658"
       id="path28"
       sodipodi:sides="5"
       sodipodi:cx="27.497768"
       sodipodi:cy="6.0003724"
       sodipodi:r1="3.3035774"
       sodipodi:r2="1.6517888"
       sodipodi:arg1="-1.2807094"
       sodipodi:arg2="-0.65239086"
       inkscape:flatsided="false"
       inkscape:rounded="0.02"
       inkscape:randomized="0"
       d="m 28.442709,2.8348217 c 0.04204,0.01255 0.340991,2.1279043 0.367628,2.1627695 0.02664,0.034865 1.988996,0.8794009 1.990052,0.9232641 0.0011,0.043863 -1.918385,0.9818608 -1.943313,1.0179676 -0.02493,0.036107 -0.221727,2.1633971 -0.263116,2.1779559 -0.04139,0.014559 -1.526619,-1.5210809 -1.568662,-1.5336309 -0.04204,-0.01255 -2.12603,0.457652 -2.152667,0.4227867 -0.02664,-0.034865 0.974883,-1.9219405 0.973827,-1.9658036 -0.0011,-0.043863 -1.092232,-1.8805526 -1.067305,-1.9166594 0.02493,-0.036107 2.12913,0.3332563 2.17052,0.3186975 0.04139,-0.014559 1.450993,-1.6198974 1.493036,-1.6073474 z"
       inkscape:transform-center-x="-0.29179298"
       inkscape:transform-center-y="-0.024557199" />
    <path
       sodipodi:type="star"
       style="fill:#ffff00;stroke-width:0.102658"
       id="path30"
       sodipodi:sides="5"
       sodipodi:cx="5.1971726"
       sodipodi:cy="37.32515"
       sodipodi:r1="4.0780506"
       sodipodi:r2="2.0390253"
       sodipodi:arg1="-1.1019674"
       sodipodi:arg2="-0.47364889"
       inkscape:flatsided="false"
       inkscape:rounded="0.02"
       inkscape:randomized="0"
       d="m 7.0398067,33.687129 c 0.048318,0.02447 -0.052791,2.659748 -0.028085,2.707947 0.024705,0.0482 2.223164,1.504797 2.2148201,1.558312 -0.00834,0.05352 -2.5458838,0.771701 -2.5840896,0.810091 -0.038206,0.03839 -0.7441519,2.579363 -0.7976264,2.587964 -0.053474,0.0086 -1.5206521,-2.18281 -1.5689698,-2.207283 -0.048318,-0.02447 -2.6830751,0.08934 -2.7077803,0.04114 -0.024705,-0.0482 1.6060691,-2.120752 1.6144129,-2.174267 0.00834,-0.05351 -0.9140797,-2.52415 -0.8758739,-2.56254 0.038206,-0.03839 2.5132574,0.872114 2.5667319,0.863513 0.053475,-0.0086 2.1181428,-1.649347 2.1664605,-1.624874 z"
       inkscape:transform-center-x="-0.20000872"
       inkscape:transform-center-y="0.19401413" />
    <path
       sodipodi:type="star"
       style="fill:#ffff00;stroke-width:0.102658"
       id="path32"
       sodipodi:sides="5"
       sodipodi:cx="27.592262"
       sodipodi:cy="35.813245"
       sodipodi:r1="5.0721831"
       sodipodi:r2="2.5360916"
       sodipodi:arg1="-2.0136136"
       sodipodi:arg2="-1.3852951"
       inkscape:flatsided="false"
       inkscape:rounded="0.02"
       inkscape:randomized="0"
       d="m 25.418899,31.230283 c 0.06087,-0.02887 2.574908,2.077954 2.641118,2.090379 0.06621,0.01242 3.173033,-1.039591 3.219294,-0.990622 0.04626,0.04897 -1.180561,3.091006 -1.171918,3.157815 0.0086,0.06681 1.969231,2.696482 1.936954,2.755612 -0.03228,0.05913 -3.304535,-0.167608 -3.365403,-0.138742 -0.06087,0.02886 -1.955982,2.706108 -2.022191,2.693683 -0.06621,-0.01243 -0.861754,-3.194593 -0.908015,-3.243562 -0.04626,-0.04897 -3.178094,-1.024016 -3.186737,-1.090824 -0.0086,-0.06681 2.771942,-1.80676 2.804219,-1.86589 0.03228,-0.05913 -0.0082,-3.338984 0.05268,-3.367849 z"
       inkscape:transform-center-x="0.28890084"
       inkscape:transform-center-y="0.20097674" />
  </g>
</svg>
