<?xml version="1.0" encoding="UTF-8" standalone="no"?>
<svg
   xmlns:dc="http://purl.org/dc/elements/1.1/"
   xmlns:cc="http://creativecommons.org/ns#"
   xmlns:rdf="http://www.w3.org/1999/02/22-rdf-syntax-ns#"
   xmlns:svg="http://www.w3.org/2000/svg"
   xmlns="http://www.w3.org/2000/svg"
   xmlns:sodipodi="http://sodipodi.sourceforge.net/DTD/sodipodi-0.dtd"
   xmlns:inkscape="http://www.inkscape.org/namespaces/inkscape"
   width="160"
   height="128"
   viewBox="0 0 42.333333 33.866668"
   version="1.1"
   id="svg8"
   inkscape:version="1.0.2-2 (e86c870879, 2021-01-15)"
   sodipodi:docname="skill_plunge_h.svg"
   inkscape:export-filename="A:\source\zpin\cdisp\media\160\skill_plunge_v.png"
   inkscape:export-xdpi="96"
   inkscape:export-ydpi="96">
  <defs
     id="defs2" />
  <sodipodi:namedview
     id="base"
     pagecolor="#ffffff"
     bordercolor="#666666"
     borderopacity="1.0"
     inkscape:pageopacity="0.0"
     inkscape:pageshadow="2"
     inkscape:zoom="5.6"
     inkscape:cx="63.314755"
     inkscape:cy="88.034129"
     inkscape:document-units="px"
     inkscape:current-layer="layer1"
     inkscape:document-rotation="0"
     showgrid="false"
     units="px"
     inkscape:snap-page="true"
     inkscape:window-width="2497"
     inkscape:window-height="1417"
     inkscape:window-x="1975"
     inkscape:window-y="1072"
     inkscape:window-maximized="1" />
  <metadata
     id="metadata5">
    <rdf:RDF>
      <cc:Work
         rdf:about="">
        <dc:format>image/svg+xml</dc:format>
        <dc:type
           rdf:resource="http://purl.org/dc/dcmitype/StillImage" />
        <dc:title></dc:title>
      </cc:Work>
    </rdf:RDF>
  </metadata>
  <g
     inkscape:label="Layer 1"
     inkscape:groupmode="layer"
     id="layer1">
    <rect
       style="fill:#000000;stroke-width:0.262206"
       id="rect10"
       width="42.286083"
       height="33.866669"
       x="0.047247026"
       y="7.4246165e-16" />
    <text
       xml:space="preserve"
       style="font-size:11.0808px;line-height:1.25;font-family:'Card Characters';-inkscape-font-specification:'Card Characters';text-align:center;text-anchor:middle;fill:#ffffff;stroke-width:0.277021"
       x="21.189783"
       y="12.263205"
       id="text14"><tspan
         sodipodi:role="line"
         id="tspan12"
         x="21.189783"
         y="12.263205"
         style="text-align:center;text-anchor:middle;fill:#ffffff;stroke-width:0.277021">PLUNGE</tspan><tspan
         sodipodi:role="line"
         x="21.189783"
         y="26.114204"
         style="text-align:center;text-anchor:middle;fill:#ffffff;stroke-width:0.277021"
         id="tspan24">HERE</tspan></text>
    <path
       sodipodi:type="star"
       style="fill:#ffff00;stroke-width:0.0668279"
       id="path26"
       sodipodi:sides="5"
       sodipodi:cx="12.583915"
       sodipodi:cy="1.5993475"
       sodipodi:r1="2.1353202"
       sodipodi:r2="1.06766"
       sodipodi:arg1="-0.84654633"
       sodipodi:arg2="-0.2182278"
       inkscape:flatsided="false"
       inkscape:rounded="0.02"
       inkscape:randomized="0"
       d="M 13.998722,-1.2993177e-8 C 14.019964,0.01879048 13.620113,1.3405121 13.626253,1.3681993 c 0.0061,0.027687 0.927238,1.056476 0.915931,1.0824844 -0.01131,0.026008 -1.391899,0.054162 -1.416334,0.068557 -0.02444,0.014395 -0.718236,1.2083251 -0.746466,1.2056087 -0.02823,-0.00272 -0.481631,-1.3070381 -0.502873,-1.3258286 -0.02124,-0.018791 -1.371132,-0.30969 -1.377272,-0.3373772 -0.0061,-0.027687 1.094234,-0.8619561 1.105541,-0.8879645 0.01131,-0.026008 -0.12917,-1.39972404 -0.104736,-1.41411926 0.02443,-0.0143952 1.157906,0.77431992 1.186136,0.77703635 0.02823,0.002716 1.291301,-0.555387 1.312542,-0.536596502993177 z"
       inkscape:transform-center-x="0.063164041"
       inkscape:transform-center-y="0.14276247" />
    <path
       sodipodi:type="star"
       style="fill:#ffff00;stroke-width:0.102658"
       id="path28"
       sodipodi:sides="5"
       sodipodi:cx="37.986608"
       sodipodi:cy="30.001861"
       sodipodi:r1="3.3035774"
       sodipodi:r2="1.6517888"
       sodipodi:arg1="-1.2807094"
       sodipodi:arg2="-0.65239086"
       inkscape:flatsided="false"
       inkscape:rounded="0.02"
       inkscape:randomized="0"
       d="m 38.931547,26.836311 c 0.04204,0.01255 0.340992,2.127904 0.367628,2.162769 0.02664,0.03487 1.988996,0.879401 1.990052,0.923264 0.0011,0.04386 -1.918385,0.981861 -1.943313,1.017968 -0.02493,0.03611 -0.221726,2.163397 -0.263116,2.177956 -0.04139,0.01456 -1.526619,-1.521081 -1.568662,-1.533631 -0.04204,-0.01255 -2.12603,0.457652 -2.152666,0.422787 -0.02664,-0.03486 0.974882,-1.921941 0.973826,-1.965804 -0.0011,-0.04386 -1.092232,-1.880552 -1.067304,-1.916659 0.02493,-0.03611 2.129129,0.333256 2.170519,0.318697 0.04139,-0.01456 1.450993,-1.619897 1.493036,-1.607347 z"
       inkscape:transform-center-x="-0.29179298"
       inkscape:transform-center-y="-0.024557199" />
    <path
       sodipodi:type="star"
       style="fill:#ffff00;stroke-width:0.102658"
       id="path30"
       sodipodi:sides="5"
       sodipodi:cx="4.2994792"
       sodipodi:cy="28.537203"
       sodipodi:r1="4.0780506"
       sodipodi:r2="2.0390253"
       sodipodi:arg1="-1.1019674"
       sodipodi:arg2="-0.47364889"
       inkscape:flatsided="false"
       inkscape:rounded="0.02"
       inkscape:randomized="0"
       d="m 6.1421131,24.899182 c 0.048318,0.02447 -0.052791,2.659748 -0.028085,2.707947 0.024705,0.0482 2.2231639,1.504797 2.2148201,1.558313 -0.00834,0.05352 -2.5458838,0.7717 -2.5840896,0.810091 -0.038206,0.03839 -0.7441519,2.579362 -0.7976264,2.587964 -0.053475,0.0086 -1.5206521,-2.182811 -1.5689698,-2.207284 -0.048318,-0.02447 -2.68307514,0.08934 -2.70778034,0.04114 -0.0247052,-0.0482 1.60606914,-2.120751 1.61441294,-2.174267 0.00834,-0.05351 -0.9140797,-2.524149 -0.8758739,-2.56254 0.038206,-0.03839 2.5132574,0.872115 2.5667319,0.863513 0.053474,-0.0086 2.1181428,-1.649347 2.1664605,-1.624874 z"
       inkscape:transform-center-x="-0.20000872"
       inkscape:transform-center-y="0.19401413" />
    <path
       sodipodi:type="star"
       style="fill:#ffff00;stroke-width:0.102658"
       id="path32"
       sodipodi:sides="5"
       sodipodi:cx="20.032738"
       sodipodi:cy="43.231027"
       sodipodi:r1="5.0721831"
       sodipodi:r2="2.5360916"
       sodipodi:arg1="-2.0136136"
       sodipodi:arg2="-1.3852951"
       inkscape:flatsided="false"
       inkscape:rounded="0.02"
       inkscape:randomized="0"
       d="m 17.859375,38.648064 c 0.06087,-0.02886 2.574908,2.077955 2.641117,2.090379 0.06621,0.01243 3.173033,-1.03959 3.219295,-0.990621 0.04626,0.04897 -1.180562,3.091006 -1.171919,3.157815 0.0086,0.06681 1.969231,2.696482 1.936954,2.755612 -0.03228,0.05913 -3.304535,-0.167608 -3.365403,-0.138743 -0.06087,0.02887 -1.955981,2.706109 -2.022191,2.693684 -0.06621,-0.01243 -0.861753,-3.194593 -0.908015,-3.243562 -0.04626,-0.04897 -3.178093,-1.024016 -3.186737,-1.090824 -0.0086,-0.06681 2.771943,-1.80676 2.804219,-1.86589 0.03228,-0.05913 -0.0082,-3.338985 0.05268,-3.36785 z"
       inkscape:transform-center-x="0.28890084"
       inkscape:transform-center-y="0.20097674" />
  </g>
</svg>
