<?xml version="1.0" encoding="UTF-8" standalone="no"?>
<svg
   xmlns:dc="http://purl.org/dc/elements/1.1/"
   xmlns:cc="http://creativecommons.org/ns#"
   xmlns:rdf="http://www.w3.org/1999/02/22-rdf-syntax-ns#"
   xmlns:svg="http://www.w3.org/2000/svg"
   xmlns="http://www.w3.org/2000/svg"
   xmlns:sodipodi="http://sodipodi.sourceforge.net/DTD/sodipodi-0.dtd"
   xmlns:inkscape="http://www.inkscape.org/namespaces/inkscape"
   width="128"
   height="160"
   viewBox="0 0 33.866666 42.333335"
   version="1.1"
   id="svg18"
   inkscape:version="1.0.2-2 (e86c870879, 2021-01-15)"
   sodipodi:docname="slower_shots_v.svg"
   inkscape:export-filename="A:\source\zpin\cdisp\media\160\slower_shots_v.png"
   inkscape:export-xdpi="96"
   inkscape:export-ydpi="96">
  <defs
     id="defs12" />
  <sodipodi:namedview
     id="base"
     pagecolor="#ffffff"
     bordercolor="#666666"
     borderopacity="1.0"
     inkscape:pageopacity="0.0"
     inkscape:pageshadow="2"
     inkscape:zoom="3.959798"
     inkscape:cx="62.357597"
     inkscape:cy="72.272123"
     inkscape:document-units="px"
     inkscape:current-layer="layer1"
     inkscape:document-rotation="0"
     showgrid="true"
     units="px"
     gridtolerance="10"
     inkscape:window-width="2497"
     inkscape:window-height="1417"
     inkscape:window-x="1975"
     inkscape:window-y="1072"
     inkscape:window-maximized="1">
    <sodipodi:guide
       position="0,33.866667"
       orientation="0,160"
       id="guide20" />
    <sodipodi:guide
       position="42.333333,33.866667"
       orientation="128,0"
       id="guide22" />
    <sodipodi:guide
       position="42.333333,0"
       orientation="0,-160"
       id="guide24" />
    <sodipodi:guide
       position="0,0"
       orientation="-128,0"
       id="guide26" />
    <inkscape:grid
       type="xygrid"
       id="grid28"
       dotted="true"
       empspacing="16" />
  </sodipodi:namedview>
  <metadata
     id="metadata15">
    <rdf:RDF>
      <cc:Work
         rdf:about="">
        <dc:format>image/svg+xml</dc:format>
        <dc:type
           rdf:resource="http://purl.org/dc/dcmitype/StillImage" />
        <dc:title></dc:title>
      </cc:Work>
    </rdf:RDF>
  </metadata>
  <g
     inkscape:label="Layer 1"
     inkscape:groupmode="layer"
     id="layer1">
    <rect
       style="fill:#000000;stroke-width:0.264583"
       id="rect30"
       width="33.866669"
       height="42.333332"
       x="0"
       y="0" />
    <text
       xml:space="preserve"
       style="font-style:normal;font-variant:normal;font-weight:normal;font-stretch:normal;font-size:5.72107px;line-height:1.35;font-family:'Card Characters';-inkscape-font-specification:'Card Characters';text-align:center;text-anchor:middle;fill:#ffffff;fill-opacity:1;stroke:none;stroke-width:0.195036"
       x="17.120218"
       y="10.449611"
       id="text34"><tspan
         sodipodi:role="line"
         id="tspan32"
         x="17.120218"
         y="10.449611"
         style="font-style:normal;font-variant:normal;font-weight:normal;font-stretch:normal;font-size:3.9984px;font-family:'Card Characters';-inkscape-font-specification:'Card Characters';text-align:center;text-anchor:middle;fill:#ffffff;stroke-width:0.195036">SLower</tspan><tspan
         sodipodi:role="line"
         x="17.120218"
         y="21.055933"
         style="font-style:normal;font-variant:normal;font-weight:normal;font-stretch:normal;font-size:8.46667px;font-family:'Card Characters';-inkscape-font-specification:'Card Characters';text-align:center;text-anchor:middle;fill:#ffffff;stroke-width:0.195036"
         id="tspan1487">SHOTS</tspan><tspan
         sodipodi:role="line"
         x="17.120218"
         y="29.603056"
         style="font-style:normal;font-variant:normal;font-weight:normal;font-stretch:normal;font-size:3.9984px;font-family:'Card Characters';-inkscape-font-specification:'Card Characters';text-align:center;text-anchor:middle;fill:#ffffff;stroke-width:0.195036"
         id="tspan1491" /></text>
    <path
       style="fill:#0066ff;stroke-width:0.031175"
       d="m 18.050236,24.254605 c -0.934549,-0.165205 -2.002454,-0.143834 -2.949339,0.126658 -1.196593,0.341827 -2.280029,0.967714 -3.291566,1.689568 -1.060245,0.756619 -2.2290643,1.478955 -2.8816586,2.644714 -0.3599123,0.57784 -0.8512558,-0.658412 -1.5320834,-0.655661 -0.9130443,0.0038 -1.8465794,0.402983 -1.8216461,1.362985 0.2055848,0.837411 1.4075301,0.579802 1.8998436,0.994324 0.6253081,0.526499 1.3072329,0.560544 1.9555579,0.785904 0.067727,0.657654 -1.0018178,1.076416 -1.3811235,1.637471 -0.9713821,0.506708 0.3446231,1.522296 1.075302,1.229809 0.7954893,-0.199721 1.2615391,-1.3172 1.9725241,-1.544215 1.205884,0.561137 3.828934,1.475398 6.026,1.475398 2.512861,0 3.378106,0.303958 5.794165,-0.679714 0.683437,-0.376292 0.855798,-0.190094 1.181335,0.294637 0.525208,0.507346 1.231871,1.129558 1.934006,0.848362 0.800392,-0.320555 -0.13964,-1.277144 -0.480789,-1.804215 -0.291027,-0.361438 -0.605231,-0.752824 0.115169,-0.585492 0.669238,-0.05826 1.869296,0.354147 2.173237,0.258255 C 27.165292,31.780983 26.222475,31.631587 25.4,31.459609 24.43197,31.429989 24.656677,30.147317 24.182029,29.500037 23.052907,27.99736 22.95981,27.48027 21.60356,26.179388 20.951672,25.554118 18.897448,24.404369 18.050236,24.254605 Z"
       id="path2276"
       sodipodi:nodetypes="csscscsccccsccscccccss" />
  </g>
</svg>
